<svg width="320" height="320" viewBox="0 0 320 320" fill="none" xmlns="http://www.w3.org/2000/svg" role="img" aria-labelledby="title desc">
  <title id="title">Grammar coach pencil</title>
  <desc id="desc">A smiling pencil character holding a small grammar card.</desc>
  <rect width="320" height="320" rx="48" fill="#E0FBFC"/>
  <circle cx="82" cy="78" r="30" fill="#FFE66D"/>
  <circle cx="252" cy="238" r="34" fill="#D8FBF8"/>
  <path d="M92 240L205 72C214 58 235 64 236 81L247 250C248 265 232 275 220 267L96 259C90 255 88 247 92 240Z" fill="#FFE66D" stroke="#5D4037" stroke-width="8" stroke-linejoin="round"/>
  <path d="M205 72L236 81L231 22L205 72Z" fill="#FFB703" stroke="#5D4037" stroke-width="8" stroke-linejoin="round"/>
  <path d="M231 22L244 2L236 81" stroke="#5D4037" stroke-width="8" stroke-linecap="round" stroke-linejoin="round"/>
  <path d="M96 259L220 267L197 304C192 312 181 313 174 307L96 259Z" fill="#FF6B6B" stroke="#5D4037" stroke-width="8" stroke-linejoin="round"/>
  <path d="M137 185C150 200 177 201 192 186" stroke="#5D4037" stroke-width="8" stroke-linecap="round"/>
  <circle cx="151" cy="153" r="7" fill="#5D4037"/>
  <circle cx="193" cy="150" r="7" fill="#5D4037"/>
  <rect x="42" y="116" width="102" height="78" rx="18" fill="#FFFFFF" stroke="#4ECDC4" stroke-width="7" stroke-linejoin="round"/>
  <path d="M62 144H124" stroke="#4ECDC4" stroke-width="7" stroke-linecap="round"/>
  <path d="M62 168H102" stroke="#4ECDC4" stroke-width="7" stroke-linecap="round"/>
  <path d="M239 144C263 149 278 167 282 194" stroke="#4ECDC4" stroke-width="8" stroke-linecap="round"/>
  <path d="M252 138C270 145 281 158 288 176" stroke="#FF6B6B" stroke-width="8" stroke-linecap="round"/>
</svg>
